<mxfile host="Electron" agent="Mozilla/5.0 (Windows NT 10.0; Win64; x64) AppleWebKit/537.36 (KHTML, like Gecko) draw.io/26.0.16 Chrome/132.0.6834.196 Electron/34.2.0 Safari/537.36" version="26.0.16">
  <diagram name="Page-1" id="SvS1HqXJZXMG-6ClL8ZG">
    <mxGraphModel dx="780" dy="496" grid="1" gridSize="10" guides="1" tooltips="1" connect="1" arrows="1" fold="1" page="1" pageScale="1" pageWidth="850" pageHeight="1100" math="0" shadow="0">
      <root>
        <mxCell id="0" />
        <mxCell id="1" parent="0" />
        <object label="User Interface&lt;div&gt;(presenration)&lt;/div&gt;" id="HzBmyLLX2iXtWfw1fs1I-2">
          <mxCell style="rounded=0;whiteSpace=wrap;html=1;fontFamily=Tahoma;" parent="1" vertex="1">
            <mxGeometry x="30" y="170" width="120" height="60" as="geometry" />
          </mxCell>
        </object>
        <mxCell id="HzBmyLLX2iXtWfw1fs1I-25" style="edgeStyle=orthogonalEdgeStyle;rounded=0;orthogonalLoop=1;jettySize=auto;html=1;exitX=0;exitY=0.5;exitDx=0;exitDy=0;" parent="1" source="HzBmyLLX2iXtWfw1fs1I-4" edge="1">
          <mxGeometry relative="1" as="geometry">
            <mxPoint x="230" y="160" as="targetPoint" />
          </mxGeometry>
        </mxCell>
        <mxCell id="HzBmyLLX2iXtWfw1fs1I-4" value="Presentation Layer&lt;div&gt;(Business Logic)&lt;/div&gt;" style="rounded=0;whiteSpace=wrap;html=1;" parent="1" vertex="1">
          <mxGeometry x="230" y="150" width="120" height="60" as="geometry" />
        </mxCell>
        <mxCell id="HzBmyLLX2iXtWfw1fs1I-5" value="Database Layer&lt;div&gt;(Data Storage)&lt;/div&gt;" style="rounded=0;whiteSpace=wrap;html=1;" parent="1" vertex="1">
          <mxGeometry x="425" y="140" width="125" height="60" as="geometry" />
        </mxCell>
        <mxCell id="HzBmyLLX2iXtWfw1fs1I-20" value="" style="endArrow=classic;html=1;rounded=0;exitX=1;exitY=0.5;exitDx=0;exitDy=0;" parent="1" source="HzBmyLLX2iXtWfw1fs1I-4" edge="1">
          <mxGeometry relative="1" as="geometry">
            <mxPoint x="365" y="160" as="sourcePoint" />
            <mxPoint x="425" y="159.5" as="targetPoint" />
          </mxGeometry>
        </mxCell>
        <mxCell id="HzBmyLLX2iXtWfw1fs1I-22" value="" style="endArrow=classic;html=1;rounded=0;" parent="1" edge="1">
          <mxGeometry relative="1" as="geometry">
            <mxPoint x="140" y="200" as="sourcePoint" />
            <mxPoint x="230" y="200" as="targetPoint" />
          </mxGeometry>
        </mxCell>
      </root>
    </mxGraphModel>
  </diagram>
</mxfile>
